<svg xmlns="http://www.w3.org/2000/svg" width="150.24" height="32.57" viewBox="0 0 150.24 32.57"><title>logo-roomkey-purple</title><circle cx="10.43" cy="10.56" r="3.74" style="fill:#572c5f"/><rect y="7.22" width="5.79" height="17.63" style="fill:#572c5f"/><rect x="88.19" width="5.79" height="24.86" style="fill:#572c5f"/><path d="M43.23,6.82A9.17,9.17,0,1,0,52.4,16,9.16,9.16,0,0,0,43.23,6.82Zm0,13.06A3.9,3.9,0,1,1,47.13,16,3.9,3.9,0,0,1,43.23,19.88Z" style="fill:#572c5f"/><path d="M23.63,6.82A9.17,9.17,0,1,0,32.8,16,9.17,9.17,0,0,0,23.63,6.82Zm0,13.06A3.9,3.9,0,1,1,27.53,16,3.9,3.9,0,0,1,23.63,19.88Z" style="fill:#572c5f"/><circle cx="146.49" cy="21.37" r="3.74" style="fill:#572c5f"/><polygon points="146.91 7.22 140.46 7.22 135.91 17.2 131.15 7.22 124.7 7.22 132.68 23.04 127.89 32.57 134.29 32.57 146.91 7.22" style="fill:#572c5f"/><polygon points="107.84 7.22 101.06 7.22 94.69 16.04 101.06 24.86 107.84 24.86 101.1 16.04 107.84 7.22" style="fill:#572c5f"/><path d="M125.31,15.83a8.78,8.78,0,0,0-2.65-6.41,9,9,0,0,0-6.54-2.6,9.17,9.17,0,0,0-9,9.11c0,6,5,9.2,9.4,9.22a11.28,11.28,0,0,0,8.21-3l-2.57-3.38a7.15,7.15,0,0,1-5.44,2c-1.77,0-4.22-1.05-4.51-3.31h13S125.31,16.33,125.31,15.83Zm-13-2A3.73,3.73,0,0,1,116.19,11c2.64,0,4,1.39,4.16,2.79Z" style="fill:#572c5f"/><path d="M85.47,16A9.18,9.18,0,0,0,69.88,9.43,9.17,9.17,0,0,0,54.3,16v8.86h5.54V15.72a3.64,3.64,0,0,1,7.27,0v9.14h5.54V15.72a3.64,3.64,0,0,1,7.28,0v9.14h5.54Z" style="fill:#572c5f"/></svg>